<svg xmlns="http://www.w3.org/2000/svg" width="89.254" height="57.989" viewBox="0 0 89.254 57.989">
  <g id="Logo" transform="translate(-6 0)">
    <g id="Logo_final" transform="translate(6 0)">
      <g id="Gruppe_1" data-name="Gruppe 1" transform="translate(50 39.486)">
        <path id="Pfad_54" data-name="Pfad 54" d="M44.832,41.657a2.233,2.233,0,0,1-.922-.872,2.529,2.529,0,0,1-.33-1.3V36.411a2.481,2.481,0,0,1,.33-1.286,2.251,2.251,0,0,1,.922-.866,2.944,2.944,0,0,1,1.374-.307,2.989,2.989,0,0,1,1.374.3,2.24,2.24,0,0,1,.922.849,2.4,2.4,0,0,1,.33,1.263.125.125,0,0,1-.034.089.111.111,0,0,1-.079.034l-.57.034c-.075,0-.112-.034-.112-.1v-.034a1.665,1.665,0,0,0-.5-1.268,2.091,2.091,0,0,0-2.659.005,1.667,1.667,0,0,0-.5,1.262v3.129a1.665,1.665,0,0,0,.5,1.263,2.088,2.088,0,0,0,2.659,0,1.661,1.661,0,0,0,.5-1.268v-.022c0-.068.037-.1.112-.1l.57.034c.074,0,.112.034.112.1a2.456,2.456,0,0,1-.33,1.28,2.222,2.222,0,0,1-.922.854,2.99,2.99,0,0,1-1.374.3A2.915,2.915,0,0,1,44.832,41.657Z" transform="translate(-43.581 -33.952)" fill="#3c3c3b"/>
        <path id="Pfad_55" data-name="Pfad 55" d="M49.773,41.072a2.121,2.121,0,0,1-.805-1.14,4.883,4.883,0,0,1-.156-1.375,4.759,4.759,0,0,1,.156-1.363,2.061,2.061,0,0,1,.794-1.128,2.365,2.365,0,0,1,1.408-.413,2.284,2.284,0,0,1,1.368.413,2.074,2.074,0,0,1,.787,1.117,4.645,4.645,0,0,1,.157,1.374,4.585,4.585,0,0,1-.157,1.375,2.078,2.078,0,0,1-.787,1.14,2.3,2.3,0,0,1-1.38.413A2.326,2.326,0,0,1,49.773,41.072Zm2.3-.575a1.458,1.458,0,0,0,.513-.8,4.886,4.886,0,0,0,.1-1.128A5.418,5.418,0,0,0,52.6,37.44a1.445,1.445,0,0,0-.52-.8,1.486,1.486,0,0,0-.933-.3,1.424,1.424,0,0,0-1.441,1.094,7.215,7.215,0,0,0,0,2.257,1.4,1.4,0,0,0,.509.8,1.5,1.5,0,0,0,.944.3A1.447,1.447,0,0,0,52.075,40.5Z" transform="translate(-42.142 -33.484)" fill="#3c3c3b"/>
        <path id="Pfad_56" data-name="Pfad 56" d="M57.508,36.187a1.891,1.891,0,0,1,.53,1.408v3.688a.1.1,0,0,1-.112.111h-.57a.1.1,0,0,1-.111-.111V37.751a1.4,1.4,0,0,0-.375-1.006,1.28,1.28,0,0,0-.967-.39,1.3,1.3,0,0,0-1.374,1.374v3.554a.1.1,0,0,1-.111.111h-.57a.1.1,0,0,1-.112-.111v-5.43a.1.1,0,0,1,.112-.111h.57a.1.1,0,0,1,.111.111v.48a.04.04,0,0,0,.016.034c.011.008.02,0,.028-.011a1.725,1.725,0,0,1,1.508-.693A1.938,1.938,0,0,1,57.508,36.187Z" transform="translate(-40.787 -33.482)" fill="#3c3c3b"/>
        <path id="Pfad_57" data-name="Pfad 57" d="M62.232,36.187a1.891,1.891,0,0,1,.53,1.408v3.688a.1.1,0,0,1-.111.111H62.08a.1.1,0,0,1-.111-.111V37.751a1.394,1.394,0,0,0-.375-1.006,1.278,1.278,0,0,0-.966-.39,1.3,1.3,0,0,0-1.374,1.374v3.554a.1.1,0,0,1-.111.111h-.57a.1.1,0,0,1-.112-.111v-5.43a.1.1,0,0,1,.112-.111h.57a.1.1,0,0,1,.111.111v.48a.039.039,0,0,0,.017.034c.011.008.02,0,.028-.011a1.725,1.725,0,0,1,1.508-.693A1.941,1.941,0,0,1,62.232,36.187Z" transform="translate(-39.488 -33.482)" fill="#3c3c3b"/>
        <path id="Pfad_58" data-name="Pfad 58" d="M67.539,38.4v.357a.1.1,0,0,1-.111.112H63.818a.039.039,0,0,0-.045.045,4.947,4.947,0,0,0,.067.793,1.341,1.341,0,0,0,.525.794,1.713,1.713,0,0,0,1.028.291,1.592,1.592,0,0,0,.827-.212,1.457,1.457,0,0,0,.559-.6c.045-.067.1-.082.156-.044l.436.257a.111.111,0,0,1,.044.156,2.007,2.007,0,0,1-.837.844,2.621,2.621,0,0,1-1.286.307,2.356,2.356,0,0,1-1.33-.38,2.036,2.036,0,0,1-.772-1.028,4.59,4.59,0,0,1-.2-1.543q0-.468.017-.765a2.428,2.428,0,0,1,.084-.53,2.074,2.074,0,0,1,.766-1.163,2.234,2.234,0,0,1,1.391-.435,2.2,2.2,0,0,1,1.564.513,2.379,2.379,0,0,1,.682,1.453A5.541,5.541,0,0,1,67.539,38.4Zm-3.2-1.771a1.32,1.32,0,0,0-.475.766,3.6,3.6,0,0,0-.089.76.039.039,0,0,0,.045.045h2.894a.04.04,0,0,0,.045-.045,5.071,5.071,0,0,0-.067-.716,1.416,1.416,0,0,0-.5-.8,1.473,1.473,0,0,0-.944-.3A1.434,1.434,0,0,0,64.338,36.63Z" transform="translate(-38.242 -33.484)" fill="#3c3c3b"/>
        <path id="Pfad_59" data-name="Pfad 59" d="M68.587,41.066a2.094,2.094,0,0,1-.788-1.134,5.13,5.13,0,0,1-.146-1.386,5.48,5.48,0,0,1,.146-1.363,2.034,2.034,0,0,1,.782-1.112,2.3,2.3,0,0,1,1.385-.419,2.424,2.424,0,0,1,1.414.413,1.879,1.879,0,0,1,.776,1.028,1.92,1.92,0,0,1,.066.335v.022q0,.079-.1.1l-.559.079h-.022c-.053,0-.086-.034-.1-.1l-.034-.168a1.259,1.259,0,0,0-.492-.72,1.527,1.527,0,0,0-.95-.3,1.455,1.455,0,0,0-.933.3,1.349,1.349,0,0,0-.486.787,5.079,5.079,0,0,0-.1,1.129,4.964,4.964,0,0,0,.1,1.14,1.357,1.357,0,0,0,.486.8,1.455,1.455,0,0,0,.933.3,1.573,1.573,0,0,0,.944-.285,1.21,1.21,0,0,0,.5-.732v-.045l.012-.045c.007-.074.052-.1.134-.089l.548.089c.075.015.108.056.1.123l-.045.223a1.768,1.768,0,0,1-.772,1.05,2.5,2.5,0,0,1-1.419.4A2.282,2.282,0,0,1,68.587,41.066Z" transform="translate(-36.96 -33.484)" fill="#3c3c3b"/>
        <path id="Pfad_60" data-name="Pfad 60" d="M74.881,36.7H73.618a.04.04,0,0,0-.045.045v3.3a.986.986,0,0,0,.241.755,1.1,1.1,0,0,0,.754.218h.279a.1.1,0,0,1,.112.112v.458a.1.1,0,0,1-.112.111c-.089.008-.227.012-.413.012a2.052,2.052,0,0,1-1.217-.3,1.3,1.3,0,0,1-.413-1.117V36.739a.04.04,0,0,0-.045-.045h-.681a.1.1,0,0,1-.112-.112v-.435a.1.1,0,0,1,.112-.111h.681a.039.039,0,0,0,.045-.045V34.7a.1.1,0,0,1,.111-.111h.548a.1.1,0,0,1,.111.111v1.3a.039.039,0,0,0,.045.045h1.263a.1.1,0,0,1,.112.111v.435A.1.1,0,0,1,74.881,36.7Z" transform="translate(-35.773 -33.778)" fill="#3c3c3b"/>
      </g>
      <g id="Gruppe_2" data-name="Gruppe 2" transform="translate(2.952 27.469)">
        <ellipse id="Ellipse_7" data-name="Ellipse 7" cx="6.154" cy="1.533" rx="6.154" ry="1.533" transform="translate(0.009 0) rotate(0.172)" fill="#36a9e1"/>
      </g>
      <path id="Pfad_61" data-name="Pfad 61" d="M37.651,33.543" transform="translate(4.788 5.422)" fill="none" stroke="#36a9e1" stroke-linecap="round" stroke-linejoin="round" stroke-miterlimit="10" stroke-width="1.079"/>
      <path id="Pfad_62" data-name="Pfad 62" d="M42.751,33.543" transform="translate(6.191 5.422)" fill="none" stroke="#36a9e1" stroke-linecap="round" stroke-linejoin="round" stroke-miterlimit="10" stroke-width="1.079"/>
      <path id="Pfad_63" data-name="Pfad 63" d="M33.36,60.973H33.33A28.995,28.995,0,0,1,33.36,2.984h.032A28.883,28.883,0,0,1,61.564,25.26a.688.688,0,0,1-1.339.318A27.512,27.512,0,0,0,33.39,4.359h-.03A27.619,27.619,0,0,0,33.331,59.6h.029a27.442,27.442,0,0,0,19.464-8.027.688.688,0,0,1,.97.976A28.811,28.811,0,0,1,33.36,60.973Z" transform="translate(-4.366 -2.984)" fill="#36a9e1"/>
      <path id="Pfad_64" data-name="Pfad 64" d="M37.651,20.58" transform="translate(4.788 1.856)" fill="none" stroke="#36a9e1" stroke-linecap="round" stroke-linejoin="round" stroke-miterlimit="10" stroke-width="1.079"/>
      <path id="Pfad_65" data-name="Pfad 65" d="M29.646,40.046A11.767,11.767,0,1,1,41.411,28.279,11.78,11.78,0,0,1,29.646,40.046Zm0-20a8.238,8.238,0,1,0,8.237,8.238A8.248,8.248,0,0,0,29.646,20.041Z" transform="translate(-0.65 0.737)" fill="#3c3c3b"/>
      <g id="Gruppe_3" data-name="Gruppe 3" transform="translate(27.437 2.979)">
        <ellipse id="Ellipse_8" data-name="Ellipse 8" cx="6.154" cy="1.533" rx="6.154" ry="1.533" transform="translate(3.103 0.009) rotate(90.172)" fill="#36a9e1"/>
        <ellipse id="Ellipse_9" data-name="Ellipse 9" cx="6.154" cy="1.534" rx="6.154" ry="1.534" transform="translate(3.117 39.775) rotate(90.166)" fill="#36a9e1"/>
      </g>
      <g id="Gruppe_4" data-name="Gruppe 4" transform="translate(43.825 24.749)">
        <path id="Pfad_66" data-name="Pfad 66" d="M45.971,22.871a3.358,3.358,0,0,1,1.367,1.35,4.054,4.054,0,0,1,.485,2,3.761,3.761,0,0,1-.5,1.958A3.421,3.421,0,0,1,45.909,29.5a4.506,4.506,0,0,1-2.091.468H41.313a.078.078,0,0,0-.088.088v4.5a.21.21,0,0,1-.212.212H38.949a.21.21,0,0,1-.212-.212V22.606a.211.211,0,0,1,.212-.212h4.975A4.261,4.261,0,0,1,45.971,22.871ZM44.859,27.5a1.61,1.61,0,0,0,.494-1.226,1.661,1.661,0,0,0-.494-1.253,1.8,1.8,0,0,0-1.306-.476H41.313a.078.078,0,0,0-.088.088v3.246a.078.078,0,0,0,.088.088h2.241A1.824,1.824,0,0,0,44.859,27.5Z" transform="translate(-38.737 -22.394)" fill="#3c3c3b"/>
        <path id="Pfad_67" data-name="Pfad 67" d="M55.863,22.47a.2.2,0,0,1,.062.15v1.729a.211.211,0,0,1-.212.212H52.555a.078.078,0,0,0-.088.088v9.9a.206.206,0,0,1-.061.151.2.2,0,0,1-.15.061H50.192a.209.209,0,0,1-.212-.212v-9.9a.078.078,0,0,0-.088-.088h-3.07a.211.211,0,0,1-.212-.212V22.62a.211.211,0,0,1,.212-.212h8.892A.206.206,0,0,1,55.863,22.47Z" transform="translate(-36.572 -22.39)" fill="#3c3c3b"/>
        <path id="Pfad_68" data-name="Pfad 68" d="M62.026,34.582,61.5,32.853c-.024-.046-.053-.071-.088-.071H57.069c-.036,0-.065.024-.088.071l-.512,1.729a.221.221,0,0,1-.229.176H54a.2.2,0,0,1-.159-.061.194.194,0,0,1-.018-.185l3.811-11.926a.222.222,0,0,1,.23-.176h2.77a.222.222,0,0,1,.229.176l3.811,11.926a.2.2,0,0,1,.017.088c0,.106-.064.159-.193.159H62.255A.223.223,0,0,1,62.026,34.582Zm-4.34-3.723h3.1c.071,0,.094-.036.071-.106l-1.588-5.24q-.018-.071-.053-.062a.084.084,0,0,0-.053.062l-1.553,5.24C57.6,30.823,57.627,30.859,57.686,30.859Z" transform="translate(-34.592 -22.39)" fill="#36a9e1"/>
        <path id="Pfad_69" data-name="Pfad 69" d="M63.622,34.7a.2.2,0,0,1-.061-.151V22.62a.21.21,0,0,1,.211-.212h2.065a.21.21,0,0,1,.211.212V34.546a.206.206,0,0,1-.061.151.2.2,0,0,1-.15.061H63.772A.2.2,0,0,1,63.622,34.7Z" transform="translate(-31.91 -22.39)" fill="#36a9e1"/>
        <path id="Pfad_70" data-name="Pfad 70" d="M73.727,34.6l-2.205-4.887a.114.114,0,0,0-.106-.071H69.775a.078.078,0,0,0-.088.088v4.816a.206.206,0,0,1-.061.151.2.2,0,0,1-.15.061H67.411a.209.209,0,0,1-.211-.212V22.619a.21.21,0,0,1,.211-.212h5.046a4.138,4.138,0,0,1,1.985.459,3.22,3.22,0,0,1,1.323,1.306,3.986,3.986,0,0,1,.468,1.958,3.49,3.49,0,0,1-.6,2.055,3.2,3.2,0,0,1-1.677,1.209.084.084,0,0,0-.053.123l2.4,4.993a.274.274,0,0,1,.036.106c0,.095-.065.141-.194.141h-2.17A.248.248,0,0,1,73.727,34.6Zm-4.04-9.968v3.017a.077.077,0,0,0,.088.088h2.311a1.69,1.69,0,0,0,1.209-.441,1.5,1.5,0,0,0,.468-1.147,1.535,1.535,0,0,0-.468-1.156,1.67,1.67,0,0,0-1.209-.45H69.775A.079.079,0,0,0,69.686,24.631Z" transform="translate(-30.909 -22.39)" fill="#36a9e1"/>
      </g>
    </g>
  </g>
</svg>
